<svg width="272" height="95" viewBox="0 0 272 95" fill="none" xmlns="http://www.w3.org/2000/svg">
<path d="M18.24 75.072C11.232 75.072 3.74395 73.632 -4.68493e-05 70.752L8.92795 59.04C12.288 66.432 17.184 71.616 22.08 71.616C25.92 71.616 28.416 69.792 28.416 66.24C28.416 63.072 26.304 60.48 20.064 58.08L10.656 54.432C3.74395 51.744 0.575953 46.944 0.575953 40.992C0.575953 32.448 8.44795 24.768 22.56 24.768C28.416 24.768 34.272 25.824 38.592 28.416L30.24 39.36C26.976 33.216 22.272 28.32 16.896 28.32C13.632 28.32 11.616 30.24 11.616 32.832C11.616 34.56 12.096 37.056 18.624 39.648L28.416 43.584C35.52 46.464 39.168 51.936 39.168 57.984C39.168 68.832 30.144 75.072 18.24 75.072ZM85.2847 59.712L86.6287 61.632L73.4767 74.304C72.1327 74.688 69.4447 74.88 67.1407 74.88C53.7007 74.88 43.5247 64.8 43.5247 51.456C43.5247 36.288 54.3727 24.96 67.6207 24.96C80.2927 24.96 88.1647 34.176 88.1647 47.808H58.4047C59.6527 55.872 64.9327 61.728 76.1647 61.728C79.1407 61.728 82.4047 61.056 85.2847 59.712ZM58.0207 44.448H72.9967C72.4207 34.944 69.5407 27.936 64.9327 27.936C60.7087 27.936 58.0207 34.176 58.0207 43.296C58.0207 43.68 58.0207 44.16 58.0207 44.448ZM95.2395 73.728V26.112H112.135V73.728H95.2395ZM103.687 17.856C98.5035 17.856 94.4715 14.208 94.4715 8.928C94.4715 3.64799 98.5035 -3.8147e-06 103.687 -3.8147e-06C108.871 -3.8147e-06 112.903 3.64799 112.903 8.928C112.903 14.208 108.871 17.856 103.687 17.856ZM132.811 75.36C132.427 75.36 132.043 75.36 131.563 75.264C131.659 80.832 137.803 85.44 146.923 85.44C156.139 85.44 162.571 82.176 162.571 78.624C162.571 76.704 160.939 75.36 157.867 75.36H132.811ZM168.811 16.608V29.376H157.579C161.035 31.872 163.051 35.616 163.051 40.032C163.051 49.344 152.491 55.68 140.395 55.68C138.379 55.68 136.459 55.584 134.635 55.296C134.059 56.064 133.483 57.12 133.483 58.272C133.483 59.808 135.019 60.768 137.131 60.768H154.603C164.587 60.768 168.235 66.336 168.235 72.672C168.235 84.96 151.147 94.848 135.307 94.848C123.307 94.848 116.971 88.896 116.971 82.944L128.395 74.688C123.307 73.152 119.947 69.12 119.947 64.704L131.371 54.624C123.499 52.608 118.987 47.616 118.987 40.896C118.987 31.584 129.547 25.248 141.643 25.248C146.731 25.248 150.955 26.016 154.411 27.552C156.811 20.736 162.091 16.608 168.811 16.608ZM139.051 28.32C136.555 28.32 134.923 30.816 134.923 35.904C134.923 44.352 138.283 52.608 142.987 52.608C145.483 52.608 147.115 50.112 147.115 45.024C147.115 36.576 143.755 28.32 139.051 28.32ZM175.61 40.8L174.17 38.592L188.762 26.304C191.162 25.44 193.658 25.056 196.73 25.056C208.73 25.056 215.45 31.68 215.45 43.872V73.728H205.754L199.802 65.184L190.682 74.112C189.626 74.496 187.322 74.784 185.786 74.784C177.338 74.784 170.906 69.504 170.906 61.632C170.906 55.872 174.842 51.072 180.986 48.864C186.074 46.944 191.258 46.464 198.938 46.176V45.6C198.938 40.896 195.482 37.344 188.762 37.344C184.826 37.344 180.698 38.304 175.61 40.8ZM187.418 57.12C187.418 61.152 190.202 63.84 194.81 63.84C196.154 63.84 197.69 63.552 198.938 63.072V48.864C196.346 49.056 194.522 49.344 192.602 50.112C189.434 51.36 187.418 53.856 187.418 57.12ZM224.802 73.728V26.112H234.978L241.122 36.48L252.354 25.728C253.698 25.44 255.234 25.344 256.29 25.344C265.89 25.344 271.746 31.68 271.746 40.704V73.728H254.85V45.792C254.85 41.568 252.162 38.304 247.362 38.304C245.154 38.304 243.138 38.784 241.698 39.36V73.728H224.802Z" fill="#E5E5E5"/>
</svg>
